<svg width="685" height="237" viewBox="0 0 685 237" fill="none" xmlns="http://www.w3.org/2000/svg">
<path d="M311.483 89.9176H317.442V48.2062H334.467V43.0986H294.742V48.2062H311.483V89.9176Z" fill="black"/>
<path d="M471.519 43.0986H463.29L439.739 62.6775V43.0986H433.78V89.9176H439.739V66.9338L464.141 89.6339L464.425 89.9176H472.938L445.697 64.6638L471.519 43.0986Z" fill="black"/>
<path d="M503.583 68.3525H527.702V63.245H503.583V48.2062H529.121V43.0986H497.624V89.9176H530.256V84.8101H503.583V68.3525Z" fill="black"/>
<path d="M599.774 89.9176V43.0986H594.099V81.9726L564.589 43.0986H557.779V89.9176H563.454V51.0437L592.964 89.9176H599.774Z" fill="black"/>
<path d="M320.279 166.247L302.403 146.384H294.742V193.203H300.417V153.762L318.86 174.192H321.698L339.858 154.046V193.203H345.533V146.384H338.155L320.279 166.247Z" fill="black"/>
<path d="M381.854 171.638H405.972V166.531H381.854V151.492H407.675V146.384H375.895V193.203H408.81V188.096H381.854V171.638Z" fill="black"/>
<path d="M430.091 151.492H447.116V193.203H452.791V151.492H469.816V146.384H430.091V151.492Z" fill="black"/>
<path d="M517.771 170.503C519.189 169.936 520.892 169.368 522.027 168.517C523.446 167.666 524.297 166.247 525.432 164.828C526.283 163.409 526.851 161.423 526.851 159.153C526.851 157.167 526.567 155.181 525.716 153.762C524.864 152.343 524.013 151.208 522.878 150.073C521.743 149.222 520.324 148.371 518.906 147.803C517.487 147.236 516.068 146.952 514.933 146.668C513.798 146.384 512.379 146.384 511.244 146.384C510.109 146.384 509.258 146.384 508.691 146.384H495.07V193.203H501.029V171.638H508.691L522.594 192.92L522.878 193.203H529.688L515.217 171.071C515.501 171.071 516.636 170.787 517.771 170.503ZM520.324 161.423C520.041 162.274 519.473 163.126 518.906 163.693C518.054 164.544 516.919 165.112 515.501 165.679C514.082 166.247 512.096 166.531 509.826 166.531H500.746V151.492H509.826C512.096 151.492 514.082 151.776 515.501 152.343C516.919 152.911 518.054 153.478 518.906 154.329C519.757 155.181 520.324 155.748 520.324 156.599C520.608 157.451 520.892 158.302 520.892 158.87C520.892 159.721 520.608 160.572 520.324 161.423Z" fill="black"/>
<path d="M563.17 146.384H557.212V193.203H563.17V146.384Z" fill="black"/>
<path d="M682.062 173.908C680.644 172.206 678.941 170.787 677.239 169.935C675.252 169.084 673.266 168.233 670.996 167.665C668.726 167.098 666.74 166.531 665.037 165.963C663.335 165.396 661.632 164.261 660.497 163.126C659.362 161.991 658.795 160.288 658.795 158.302C658.795 156.883 659.079 155.748 659.646 154.897C660.214 154.045 661.065 153.194 661.916 152.343C662.767 151.775 663.902 151.208 665.321 150.924C666.74 150.64 667.875 150.357 669.293 150.357C671.28 150.357 672.982 150.64 674.685 151.492C676.104 152.059 677.522 153.194 678.657 154.613L678.941 155.18L684.049 151.775L683.481 151.208C681.779 148.938 679.509 147.519 677.239 146.668C674.969 145.817 672.131 145.249 669.577 145.249C667.307 145.249 665.321 145.533 663.335 146.1C661.348 146.668 659.646 147.519 657.943 148.654C656.525 149.789 655.106 151.208 654.255 152.91C653.403 154.613 652.836 156.599 652.836 158.585C652.836 160.855 653.12 162.842 653.971 164.26C654.822 165.679 655.673 167.098 657.092 168.233C658.227 169.368 659.646 169.935 661.348 170.787C662.767 171.354 664.47 171.922 666.172 172.489C667.875 173.057 669.294 173.341 670.996 173.908C672.415 174.476 673.833 175.043 674.968 175.61C676.103 176.178 676.955 177.029 677.522 177.88C678.09 178.732 678.374 179.867 678.374 181.569C678.374 182.704 678.09 183.839 677.522 184.974C676.955 186.109 676.104 186.961 675.252 187.528C674.401 188.379 673.266 188.947 671.847 189.231C670.429 189.514 669.294 189.798 667.591 189.798C665.321 189.798 663.051 189.231 661.348 188.379C659.646 187.528 657.944 186.109 656.808 184.407L656.525 183.839L650.85 187.244L651.417 187.812C653.403 190.366 655.957 192.352 658.795 193.203C661.632 194.338 664.754 194.906 668.159 194.906C670.145 194.906 672.131 194.622 674.117 194.054C676.104 193.487 677.806 192.636 679.225 191.501C680.644 190.366 682.062 188.947 682.914 187.244C683.765 185.542 684.332 183.556 684.332 181.569C684.049 177.881 683.197 175.611 682.062 173.908Z" fill="black"/>
<path d="M407.107 66.3662C407.107 52.7461 396.041 41.6798 382.421 41.6798C368.801 41.6798 357.735 52.7461 357.735 66.3662C357.735 79.9863 368.801 91.0526 382.421 91.0526C396.041 91.0526 407.107 79.9863 407.107 66.3662ZM401.432 66.3662C401.432 76.865 392.92 85.3776 382.421 85.3776C371.922 85.3776 363.41 76.865 363.41 66.3662C363.41 55.8674 371.922 47.3548 382.421 47.3548C392.92 47.3548 401.432 55.8674 401.432 66.3662Z" fill="black"/>
<path d="M612.827 150.641C617.934 150.641 622.758 152.627 626.447 156.599L627.015 157.167L630.987 153.195L630.42 152.627C625.596 147.803 619.353 144.966 612.827 144.966C599.207 144.966 588.141 156.032 588.141 169.652C588.141 183.272 599.207 194.339 612.827 194.339C619.637 194.339 625.88 191.785 630.42 186.677L630.987 186.11L627.015 182.137L626.447 182.705C622.758 186.393 617.934 188.664 612.827 188.664C602.328 188.664 593.816 180.151 593.816 169.652C593.816 159.153 602.328 150.641 612.827 150.641Z" fill="black"/>
<path d="M237.538 143.021C236.456 141.327 234.816 137.635 234.954 130.988C235.555 126.229 235.872 121.422 235.872 116.583C235.872 104.932 234.11 93.5486 230.751 82.7193C228.533 75.437 225.601 68.3749 221.965 61.6768C221.817 61.409 218.374 55.0484 220.859 47.9199C222.036 44.5432 220.98 40.787 218.189 38.541L217.891 38.3418C204.037 30.5661 191.347 20.3419 180.138 7.92044L179.889 7.68477C177.362 5.65122 173.868 5.34695 170.765 6.89812C167.235 8.66281 162.604 8.88964 157.043 7.58409C145.686 3.87878 133.808 1.99901 121.726 1.99901C120.777 1.99901 119.833 2.07093 118.886 2.09416C123.194 55.6746 35 145.499 45.4158 210.873L87.7715 232.555C88.7008 232.969 89.1793 235.999 90.2158 235.999C92.1252 235.999 94.07 235.259 95.6899 233.913C96.8999 232.909 101.433 229.626 108.96 229.578C113.22 230.054 117.515 230.299 121.796 230.302C121.851 230.302 121.904 230.299 121.959 230.299C122.072 230.299 122.182 230.303 122.295 230.303C146.668 230.303 170.105 222.478 189.4 208.323C193.142 206.05 197.752 204.112 201.071 204.565C204.659 205.029 208.211 203.246 210.124 199.964L210.264 199.672C216.813 183.202 225.993 167.466 237.576 152.866L237.746 152.612C239.49 149.626 239.409 145.951 237.538 143.021Z" fill="white"/>
<path d="M117.257 132.091L110.558 162.113C110.558 162.113 97.0395 161.9 77.7285 172.658C57.2095 184.087 47.9179 196.181 46.4533 213.52C47.0304 214.153 47.7043 214.691 48.4795 215.095L48.8352 215.238C62.8749 219.581 76.2276 226.551 88.5628 235.986L88.8755 236.181C88.9977 236.245 89.1321 236.268 89.2565 236.325L99.7715 228.757C118.063 212.955 123.512 167.526 124.881 120.075L117.257 132.091Z" fill="#CEEAF5"/>
<path d="M239.028 143.142C237.95 141.432 236.315 137.706 236.453 130.995C237.052 126.19 237.368 121.339 237.368 116.452C237.368 104.693 235.612 93.1998 232.264 82.2688C230.054 74.9163 227.133 67.7883 223.509 61.0255C223.361 60.7564 219.93 54.3342 222.407 47.1381C223.579 43.7294 222.528 39.9375 219.746 37.6702L219.449 37.4692C205.645 29.6197 192.998 19.2996 181.828 6.75919L181.579 6.52131C179.061 4.46958 175.579 4.16243 172.487 5.7272C168.97 7.50864 164.355 7.73872 158.814 6.42079C147.495 2.67921 135.658 0.7816 123.618 0.7816C113.265 0.782717 102.993 2.20341 93.1493 4.9867L92.9555 5.01909C92.5712 5.0928 89.0915 5.65237 85.896 2.20341C83.8897 0.0388801 81.041 -0.607813 78.7516 0.620765L78.374 0.882133C71.5842 6.68549 63.6041 10.9598 54.5944 13.6113L54.1903 13.78C52.1102 14.8957 51.0729 17.3496 51.4814 20.1853C51.7744 22.2248 52.3194 26.0211 50.2459 28.0326L50.1667 28.1242C34.0787 41.968 22.1311 59.9801 15.631 80.1634L15.5209 80.4326C15.5 80.4907 13.4078 86.2281 6.43192 88.0889C2.96547 89.0126 0.606791 91.7154 0.566048 94.8159L0.561643 95.0784L0.613398 95.3375C3.03925 107.619 2.86196 120.359 0.0727285 133.259L0.0264798 133.696C-0.0131619 136.566 1.98875 139.121 5.25258 140.364C7.98566 141.404 12.561 143.147 14.4627 148.066C19.3144 165.094 28.1831 181.022 40.0855 194.1L40.2067 194.248C40.2144 194.258 40.3818 194.466 40.6031 194.757C41.2241 193.98 46.197 194.063 46.839 193.303C46.839 193.303 43.5817 188.121 50.3307 181.681C66.6862 166.071 86.5589 155.35 110.559 152.694C113.946 152.32 114.069 139.903 115.502 139.095C116.671 138.436 118.88 137.655 123.49 137.655C127.583 137.655 130.72 138.721 131.809 139.911C134.063 142.374 132.42 152.422 135.854 152.822C160.875 155.742 181.289 166.862 199.114 184.258C204.78 189.787 196.342 198.309 196.342 198.309C197.637 200.02 205.254 202.244 210.514 202.244C210.954 201.75 211.365 201.222 211.709 200.626L211.849 200.331C218.375 183.704 227.523 167.819 239.066 153.08L239.236 152.825C240.973 149.81 240.893 146.1 239.028 143.142" fill="#FCE183"/>
<path d="M124.805 0.804914C124.41 0.800446 124.015 0.781472 123.618 0.781472C113.265 0.782588 102.992 2.20215 93.1498 4.98655L92.956 5.01894C92.5706 5.09265 89.0909 5.65222 85.8965 2.20215C83.8891 0.0387316 81.0404 -0.607943 78.7521 0.619519L78.3734 0.881986C71.5836 6.68535 63.6046 10.9597 54.5938 13.6112L54.1897 13.7798C52.1107 14.8956 51.0734 17.3494 51.4808 20.1852C51.7738 22.2246 52.3199 26.0209 50.2453 28.0325L50.1661 28.124C34.0792 41.9668 22.1306 59.9789 15.6304 80.1633L15.5203 80.4325C15.5005 80.4905 13.4072 86.228 6.43133 88.0888C2.96598 89.0124 0.607296 91.7153 0.565452 94.8158L0.562149 95.0782L0.613903 95.3374C3.03976 107.619 2.86137 120.359 0.0732343 133.259L0.0258844 133.696C-0.0137573 136.566 1.98925 139.121 5.25199 140.364C7.98616 141.403 12.5604 143.147 14.4632 148.066C19.3149 165.094 28.1836 181.022 40.085 194.099L40.2061 194.248C40.2149 194.258 40.3823 194.466 40.6025 194.757C41.2235 193.98 46.1964 194.063 46.8384 193.303C46.8384 193.303 43.5822 188.121 50.3312 181.681C54.7766 177.437 59.4929 173.57 64.4712 170.113C52.8859 152.375 46.1226 131.111 46.1226 108.24C46.1226 57.5385 79.2862 14.7102 124.805 0.804914" fill="#FECF34"/>
<path d="M122.756 30.4414C118.227 30.6682 106.32 60.9258 106.32 92.8924C106.32 98.87 106.682 104.258 107.396 108.905C107.421 109.074 107.569 109.196 107.744 109.196H124.295C124.956 81.2957 124.025 53.2539 122.756 30.4414" fill="#CEEAF5"/>
<path d="M122.809 30.4307C122.793 30.4307 122.773 30.4408 122.756 30.4408C124.025 53.2544 124.955 81.295 124.295 109.195H137.874C138.05 109.195 138.198 109.074 138.223 108.905C138.937 104.257 139.298 98.8693 139.298 92.8917C139.298 60.8057 127.3 30.4307 122.809 30.4307" fill="white"/>
<path d="M130.279 130.299L136.626 114.145L124.16 114.154C123.993 119.569 123.764 124.964 123.462 130.305L130.279 130.299Z" fill="white"/>
<path d="M109.968 116.635L115.338 130.311L123.463 130.305C123.764 124.964 123.993 119.57 124.16 114.154L108.975 114.166L109.968 116.635Z" fill="#CEEAF5"/>
<path d="M45.6552 112.315C42.4057 115.611 42.4057 120.972 45.6552 124.268C48.9037 127.562 54.1903 127.562 57.4399 124.268C60.6883 120.972 60.6883 115.611 57.4399 112.315C54.1903 109.02 48.9037 109.02 45.6552 112.315" fill="white"/>
<path d="M208.023 133.129C206.448 132.62 204.771 132.763 203.304 133.533C201.838 134.303 200.752 135.607 200.249 137.203C199.214 140.502 201.016 144.04 204.267 145.088C206.48 145.804 208.879 145.209 210.526 143.538C211.219 142.836 211.742 141.963 212.04 141.014C212.542 139.417 212.4 137.716 211.642 136.226C210.883 134.738 209.598 133.638 208.023 133.129" fill="white"/>
<path d="M186.119 60.2705C185.244 59.9712 184.34 59.8115 183.431 59.7958C182.035 59.7713 180.627 60.0951 179.362 60.7307C177.242 61.7939 175.66 63.6323 174.902 65.903C174.147 68.1758 174.307 70.6096 175.357 72.7584C176.404 74.904 178.215 76.5078 180.457 77.2763C182.7 78.0447 185.1 77.8827 187.214 76.8206C188.093 76.3783 188.88 75.8042 189.555 75.1196C190.504 74.1568 191.23 72.9762 191.673 71.6483C192.429 69.3754 192.267 66.9417 191.219 64.7939C190.169 62.6439 188.359 61.0378 186.119 60.2705" fill="white"/>
<path d="M79.0927 49.2158C77.3716 47.4701 74.5714 47.4701 72.8491 49.2158C71.1291 50.9615 71.1291 53.8017 72.8502 55.5474C74.5714 57.2942 77.3727 57.2942 79.0927 55.5485C80.8138 53.8028 80.8138 50.9615 79.0927 49.2158" fill="white"/>
<path d="M122.813 58.6133C117.047 58.6133 112.356 63.3702 112.356 69.2182C112.356 75.0651 117.047 79.8242 122.813 79.8242C128.579 79.8242 133.269 75.0651 133.269 69.2182C133.269 63.3702 128.579 58.6133 122.813 58.6133" fill="white"/>
<path d="M59.1916 135.611C67.3754 131.321 72.15 122.207 71.0731 112.933C70.9938 112.25 70.6304 111.627 70.0754 111.225C69.5117 110.814 68.7981 110.663 68.1231 110.808C66.8832 111.078 66.0595 112.241 66.2082 113.517C67.0462 120.745 63.322 127.85 56.943 131.195C50.7919 134.421 43.3624 133.64 38.0141 129.205C37.0296 128.387 35.6147 128.466 34.7249 129.382C34.2404 129.883 33.9838 130.571 34.0224 131.272C34.0598 131.966 34.3814 132.612 34.9066 133.048C38.8631 136.333 43.8546 138.143 48.9618 138.143C52.4954 138.143 56.0324 137.266 59.1916 135.611" fill="black"/>
<path d="M71.5747 64.7277C73.6152 65.6793 75.7944 66.1618 78.0551 66.1618C82.1503 66.1618 86.1541 64.5021 89.0391 61.6093C89.5203 61.1257 89.7813 60.4511 89.756 59.7575C89.7262 59.0561 89.4069 58.3982 88.8794 57.9493C87.9071 57.125 86.4987 57.182 85.6002 58.0855C82.4575 61.2385 77.6443 62.1007 73.6185 60.2244C69.7391 58.415 67.2956 54.4579 67.3925 50.1422C67.4212 48.8533 66.4929 47.771 65.2354 47.6281C64.5527 47.5387 63.86 47.7632 63.3392 48.2245C62.8227 48.6802 62.5188 49.338 62.5045 50.0249C62.4208 53.6559 63.588 57.2322 65.7904 60.0926C67.3155 62.0728 69.3163 63.6756 71.5747 64.7277" fill="black"/>
<path d="M188.747 82.2934C184.147 84.7047 178.942 85.0487 174.089 83.2628C172.894 82.8194 171.591 83.3801 171.054 84.5528C170.765 85.1839 170.752 85.9143 171.016 86.5588C171.28 87.2032 171.803 87.7103 172.451 87.947C175 88.883 177.653 89.3577 180.335 89.3577C184.009 89.3566 187.695 88.4396 190.997 86.7095C199.231 82.3928 204.148 73.5537 203.521 64.1919C203.473 63.4939 203.136 62.8438 202.597 62.406C202.06 61.9727 201.37 61.7861 200.682 61.8922C199.424 62.0933 198.541 63.2158 198.63 64.5024C199.133 71.8985 195.255 78.8824 188.747 82.2934" fill="black"/>
<path d="M222.663 134.741C222.659 134.65 222.65 134.558 222.639 134.46C221.777 127.435 217.614 121.6 211.502 118.851C210.881 118.571 210.163 118.577 209.536 118.861C208.897 119.153 208.407 119.71 208.194 120.385C207.818 121.588 208.403 122.889 209.555 123.412C212.437 124.722 214.73 126.927 216.189 129.792C217.893 133.136 218.212 136.951 217.085 140.536C215.961 144.12 213.525 147.048 210.229 148.773C206.811 150.567 202.764 150.834 199.125 149.506C197.956 149.078 196.662 149.61 196.111 150.741C195.801 151.38 195.774 152.125 196.038 152.786C196.295 153.435 196.812 153.942 197.454 154.178C199.507 154.928 201.658 155.308 203.851 155.308C206.853 155.308 209.837 154.577 212.478 153.192C219.148 149.695 223.05 142.624 222.663 134.741" fill="black"/>
<path fill-rule="evenodd" clip-rule="evenodd" d="M236.428 130.992C236.291 137.702 237.925 141.428 239.003 143.138C240.867 146.097 240.947 149.807 239.211 152.82L239.04 153.077C227.498 167.815 218.349 183.7 211.823 200.326L211.683 200.622C209.778 203.935 206.239 205.734 202.662 205.267C199.355 204.808 194.76 206.766 191.033 209.06C171.804 223.35 148.448 231.248 124.161 231.248C124.104 231.248 124.048 231.247 123.992 231.246C123.937 231.245 123.881 231.244 123.826 231.244C123.798 231.244 123.771 231.245 123.744 231.246C123.717 231.246 123.689 231.247 123.662 231.247C119.396 231.244 115.117 230.998 110.872 230.517C103.371 230.566 98.8527 233.879 97.648 234.893C96.0326 236.251 94.0957 236.998 92.1918 236.998C91.0213 236.998 89.9058 236.727 88.8762 236.189L88.5635 235.993C76.2272 226.56 62.8756 219.588 48.8359 215.247L48.4791 215.104C45.5709 213.586 43.9676 210.27 44.3431 206.629C45.0369 199.902 40.2303 194.3 40.1808 194.245L40.0607 194.095C28.1583 181.018 19.2896 165.089 14.4379 148.062C12.5351 143.142 7.96086 141.4 5.22668 140.359C1.96394 139.117 -0.039064 136.563 0.000577713 133.692L0.0479275 133.255C2.83606 120.355 3.01445 107.615 0.587495 95.334L0.536842 95.0748L0.540146 94.8124C0.58199 91.7119 2.94067 89.009 6.40602 88.0853C13.3819 86.2257 15.4752 80.486 15.495 80.4291L15.6062 80.1599C22.1052 59.9754 34.0539 41.9645 50.1407 28.1207L50.22 28.0291C52.2938 26.0183 51.7489 22.2242 51.4559 20.1842L51.4555 20.1818C51.0481 17.346 52.0854 14.8922 54.1644 13.7764L54.5685 13.6078C63.5782 10.9563 71.5594 6.68083 78.3491 0.878586L78.7268 0.616119C81.015 -0.611343 83.8637 0.0353241 85.87 2.19875C89.0656 5.64882 92.5453 5.08925 92.9307 5.01553L93.1245 4.98203C102.967 2.19875 113.239 0.77919 123.592 0.778061C135.634 0.778061 147.47 2.67566 158.788 6.41724C164.33 7.73517 168.944 7.50508 172.462 5.72365C175.553 4.15889 179.036 4.4649 181.553 6.51776L181.802 6.75566C192.973 19.2961 205.619 29.6162 219.424 37.4657L219.72 37.6667C222.503 39.934 223.555 43.7258 222.382 47.1346C219.905 54.3307 223.337 60.7528 223.483 61.022C227.108 67.7836 230.029 74.9128 232.239 82.2641C235.586 93.1962 237.342 104.688 237.342 116.449C237.342 121.334 237.026 126.187 236.428 130.992ZM201.518 200.247C202.121 200.24 202.72 200.259 203.309 200.337C204.844 200.546 206.483 199.711 207.372 198.252C214.009 181.365 223.35 165.142 235.088 150.135C235.78 148.844 235.719 147.158 234.875 145.819C234.602 145.385 234.301 144.849 233.994 144.216C233.359 146.804 232.65 149.375 231.837 151.916C231.635 152.548 231.198 153.062 230.609 153.36C230.259 153.54 229.883 153.628 229.504 153.628C229.236 153.628 228.966 153.583 228.705 153.494L228.704 153.493C227.432 153.048 226.761 151.678 227.18 150.372C229.249 143.904 230.697 137.258 231.548 130.508C231.572 129.589 231.619 128.639 231.707 127.63C232.1 123.765 232.301 119.859 232.305 116.011C232.313 105.9 230.937 95.8467 228.27 86.1756C228.238 86.0639 228.209 85.9517 228.18 85.8396C228.147 85.7141 228.114 85.5886 228.078 85.4641C227.986 85.1369 227.887 84.8111 227.788 84.4854C227.733 84.3042 227.677 84.1231 227.624 83.9418C222.586 67.3783 213.702 52.1652 201.407 39.4818C200.473 38.5201 200.467 36.9576 201.397 36.0004C202.329 35.0432 203.974 35.0399 204.896 35.9926C209.255 40.4881 213.182 45.3041 216.706 50.3591C216.859 48.8 217.181 47.1682 217.757 45.4962C218.222 44.1392 217.847 42.6169 216.824 41.6865C202.673 33.608 189.715 23.0289 178.307 10.2427C177.395 9.56699 175.96 9.50891 174.648 10.1712C173.339 10.8347 171.924 11.3171 170.427 11.6589C172.377 12.5424 174.303 13.4795 176.199 14.4757C176.782 14.7829 177.209 15.3033 177.404 15.9444C177.6 16.5911 177.534 17.2758 177.219 17.8699C176.774 18.7031 175.948 19.1711 175.082 19.1711C174.696 19.1711 174.304 19.0784 173.934 18.883C158.667 10.8615 141.456 6.61951 124.161 6.61951C110.556 6.61951 97.2992 9.14145 84.7592 14.1161C83.5005 14.6176 82.1109 14.02 81.5977 12.7546C81.3456 12.1314 81.3522 11.4445 81.6132 10.8224C81.873 10.2058 82.3531 9.73227 82.9643 9.48878C83.6629 9.21204 84.368 8.95796 85.0731 8.70389C85.3327 8.61037 85.5923 8.51683 85.8515 8.42216C84.6722 7.76544 83.4642 6.85965 82.3003 5.60426C81.8521 5.11841 81.4204 4.96092 81.1848 4.96092H81.1771C74.0416 10.9787 65.7135 15.4429 56.4186 18.234C56.3283 18.4016 56.2127 18.8182 56.3063 19.4637C56.477 20.6577 56.7281 22.4224 56.6278 24.3434C59.5801 22.1052 62.6413 19.9998 65.8192 18.0565C66.3808 17.7136 67.0415 17.6142 67.6824 17.7817C68.3288 17.9504 68.8683 18.3636 69.202 18.9477C69.8781 20.1283 69.4971 21.6104 68.3376 22.3185C39.9849 39.6582 20.6739 69.8321 16.6789 103.034C16.5258 104.308 15.4897 105.227 14.263 105.227C14.176 105.227 14.089 105.222 13.9987 105.213C13.3369 105.143 12.7434 104.812 12.3271 104.284C11.9153 103.758 11.7325 103.104 11.8129 102.445C12.3249 98.1922 13.0792 93.9882 14.0592 89.8501C12.3712 91.0899 10.2702 92.1945 7.6505 92.8937C6.47997 93.2053 5.59684 93.9368 5.45919 94.693C7.92909 107.446 7.7452 120.644 4.91522 133.93C5.02864 134.577 5.81597 135.276 6.91383 135.693L6.91939 135.695C8.56095 136.32 10.9059 137.214 13.1761 138.821C12.6299 136.053 12.152 133.268 11.814 130.46C11.7336 129.8 11.9164 129.148 12.3271 128.625C12.7423 128.094 13.3358 127.763 13.9987 127.693C15.3432 127.542 16.5159 128.508 16.68 129.872C20.0881 158.148 34.7016 184.591 56.7732 202.419C57.8325 203.278 58.0197 204.797 57.1994 205.878C56.7919 206.413 56.205 206.753 55.5432 206.834C55.4408 206.848 55.3406 206.854 55.2404 206.854C54.6909 206.854 54.1646 206.669 53.7307 206.318C52.1406 205.035 50.5957 203.699 49.0805 202.331C49.3162 203.846 49.391 205.459 49.2171 207.146C49.0607 208.665 49.5562 209.968 50.5142 210.57C64.9361 215.065 78.6488 222.222 91.2725 231.843C92.2239 232.249 93.4627 231.955 94.5198 231.069C95.1783 230.515 96.612 229.419 98.7681 228.35C91.8627 226.745 85.1126 224.479 78.5618 221.549C77.9606 221.28 77.5003 220.787 77.2669 220.159C77.0312 219.526 77.0555 218.841 77.334 218.229C77.8989 216.989 79.3095 216.453 80.5494 217.006C90.4863 221.448 100.901 224.301 111.638 225.548H111.653V225.55C115.655 226.014 119.701 226.259 123.785 226.273C146.207 226.235 167.635 219.428 185.829 206.577L186.495 206.112C186.974 205.78 187.586 205.375 188.285 204.939C194.795 200.085 200.811 194.47 206.189 188.144C207.074 187.103 208.578 186.974 209.611 187.847C210.122 188.279 210.434 188.889 210.49 189.564C210.543 190.233 210.336 190.878 209.908 191.382C207.254 194.504 204.452 197.46 201.518 200.247Z" fill="black"/>
<path d="M145.173 154.35C144.528 154.212 143.874 154.354 143.33 154.729C142.777 155.109 142.407 155.683 142.287 156.349C142.046 157.692 142.898 158.957 144.227 159.225C163.424 163.137 180.958 172.635 194.933 186.694L194.934 186.695C195.411 187.175 196.025 187.417 196.638 187.426C197.261 187.435 197.884 187.201 198.37 186.721C198.847 186.251 199.111 185.62 199.113 184.944C199.118 184.274 198.863 183.646 198.398 183.178C183.731 168.421 165.328 158.452 145.173 154.35" fill="black"/>
<path d="M105.28 155.928C105.163 155.262 104.794 154.686 104.243 154.304C103.695 153.926 103.038 153.787 102.396 153.918C83.1003 157.796 65.2935 167.11 50.9002 180.853C50.4212 181.311 50.1504 181.931 50.1371 182.601C50.1228 183.278 50.3695 183.918 50.8342 184.402H50.8364C51.3209 184.909 51.9618 185.159 52.6015 185.152C53.1962 185.146 53.7908 184.917 54.2654 184.465C67.9825 171.371 84.9514 162.495 103.339 158.795C104.664 158.528 105.518 157.268 105.28 155.928" fill="black"/>
<path d="M172.46 178.483C171.894 178.149 171.229 178.061 170.593 178.24C169.948 178.42 169.415 178.846 169.089 179.439C168.44 180.628 168.845 182.099 170.013 182.789C174.343 185.345 178.495 188.297 182.356 191.566C182.823 191.96 183.383 192.154 183.942 192.154C184.62 192.154 185.292 191.866 185.775 191.302C186.213 190.792 186.426 190.138 186.373 189.463C186.321 188.795 186.015 188.191 185.512 187.764C181.429 184.304 177.037 181.181 172.46 178.483" fill="black"/>
<path d="M161.144 177.285C161.462 177.449 161.796 177.541 162.126 177.562C163.051 177.623 163.957 177.148 164.424 176.265C164.742 175.67 164.808 174.983 164.609 174.335C164.413 173.696 163.985 173.176 163.401 172.873C159.742 170.967 155.919 169.291 152.04 167.89C151.418 167.67 150.754 167.708 150.162 168C149.56 168.298 149.114 168.816 148.901 169.459C148.477 170.75 149.143 172.123 150.417 172.582C154.078 173.903 157.686 175.486 161.144 177.285" fill="black"/>
<path d="M95.1483 171.21C94.9424 170.565 94.4986 170.044 93.8996 169.743C93.3082 169.443 92.6387 169.404 92.0188 169.618C80.5821 173.654 70.1498 179.827 61.0112 187.97C60.5168 188.409 60.225 189.02 60.1887 189.691C60.1534 190.367 60.3803 191.014 60.8307 191.515C61.3229 192.062 61.9957 192.336 62.6685 192.322C63.2312 192.313 63.7939 192.105 64.2575 191.694C72.9126 183.985 82.7878 178.138 93.6111 174.32C94.8895 173.87 95.5634 172.503 95.1483 171.21" fill="black"/>
<path d="M151.213 181.777C150.601 181.534 149.932 181.554 149.329 181.83C148.726 182.106 148.251 182.627 148.026 183.255C147.571 184.529 148.197 185.916 149.454 186.416C157.556 189.629 164.965 194.257 171.475 200.172C171.952 200.605 172.542 200.821 173.128 200.821C173.776 200.821 174.419 200.557 174.9 200.038C175.359 199.544 175.595 198.897 175.567 198.218C175.539 197.546 175.254 196.931 174.765 196.487C167.8 190.159 159.876 185.209 151.213 181.777" fill="black"/>
<path d="M93.8075 184.795C93.5432 184.168 93.0532 183.69 92.4266 183.444C91.8089 183.201 91.1394 183.221 90.5425 183.498C83.4236 186.799 76.8485 191.17 70.9981 196.485C70.5103 196.928 70.224 197.543 70.1953 198.213C70.1667 198.893 70.4034 199.541 70.8626 200.037C71.3427 200.556 71.9869 200.819 72.6333 200.819C73.2191 200.819 73.8082 200.603 74.285 200.172C79.7622 195.199 85.91 191.115 92.5588 188.03C93.7844 187.461 94.3327 186.039 93.8075 184.795" fill="black"/>
<path d="M144.555 193.029C143.943 192.791 143.276 192.817 142.677 193.1C142.075 193.384 141.605 193.911 141.387 194.546C140.952 195.82 141.594 197.2 142.852 197.69C148.922 200.052 154.487 203.465 159.392 207.838C159.869 208.264 160.455 208.473 161.039 208.473C161.69 208.473 162.336 208.21 162.817 207.689C163.271 207.198 163.513 206.531 163.481 205.857C163.448 205.188 163.158 204.578 162.666 204.139C157.298 199.346 151.205 195.61 144.555 193.029" fill="black"/>
<path d="M119.243 191.788C119.175 191.118 118.837 190.495 118.316 190.077C117.795 189.663 117.145 189.473 116.503 189.572C104.733 191.17 93.8007 196.249 84.8857 204.263C84.3946 204.703 84.1083 205.315 84.0775 205.985C84.0489 206.658 84.2911 207.323 84.7459 207.815C85.2249 208.332 85.8691 208.593 86.5188 208.593C87.1024 208.593 87.6915 208.38 88.1683 207.953C96.3345 200.627 106.342 195.977 117.108 194.504C118.441 194.322 119.38 193.129 119.243 191.788" fill="black"/>
<path d="M145.702 210.008C138.918 205.407 130.99 202.973 122.777 202.973C114.557 202.973 106.625 205.408 99.8385 210.014C99.2692 210.402 98.8761 211.01 98.7605 211.688C98.6449 212.361 98.8023 213.033 99.2032 213.582C99.6866 214.244 100.428 214.598 101.175 214.598C101.633 214.598 102.095 214.465 102.503 214.187C108.495 210.102 115.506 207.943 122.777 207.943C130.039 207.943 137.047 210.1 143.039 214.181C144.112 214.912 145.56 214.641 146.34 213.573C146.74 213.024 146.895 212.354 146.781 211.682C146.664 211.005 146.27 210.394 145.702 210.008" fill="black"/>
<path d="M118.872 141.552C118.923 140.896 118.711 140.26 118.277 139.761C117.84 139.26 117.214 138.957 116.51 138.924C115.202 138.843 114.087 139.867 113.985 141.209C113.693 144.914 113.019 148.725 111.98 152.537C109.992 159.799 106.717 166.661 102.76 171.866C101.949 172.93 102.096 174.43 103.088 175.278L103.124 175.309C103.568 175.688 104.112 175.889 104.681 175.889C104.768 175.889 104.856 175.884 104.946 175.874C105.615 175.802 106.211 175.462 106.624 174.919C110.97 169.211 114.548 161.732 116.7 153.865C117.83 149.732 118.56 145.589 118.872 141.552" fill="black"/>
<path d="M108.59 185.192C109.034 185.566 109.577 185.764 110.143 185.764C110.239 185.764 110.335 185.758 110.43 185.747C111.105 185.667 111.703 185.32 112.115 184.77C115.354 180.438 118.177 175.106 120.279 169.345C120.506 168.722 120.476 168.046 120.192 167.442C119.908 166.835 119.386 166.364 118.758 166.148C117.495 165.714 116.138 166.378 115.671 167.659C113.738 172.943 111.164 177.816 108.224 181.751C107.415 182.831 107.577 184.342 108.589 185.192H108.59Z" fill="black"/>
<path d="M142.211 177.004C142.303 177.014 142.395 177.018 142.488 177.018C143.057 177.018 143.604 176.817 144.048 176.442L144.049 176.44C145.058 175.584 145.213 174.073 144.401 172.996C140.416 167.709 137.114 160.743 135.1 153.38C134.044 149.518 133.355 145.653 133.052 141.893C132.943 140.538 131.808 139.52 130.493 139.595C129.829 139.627 129.197 139.936 128.76 140.443C128.322 140.947 128.112 141.588 128.165 142.25C128.49 146.338 129.235 150.53 130.378 154.708C132.555 162.672 136.157 170.244 140.52 176.031C140.935 176.583 141.535 176.928 142.211 177.004" fill="black"/>
<path d="M138.777 187.552C134.404 181.123 130.669 172.683 128.263 163.785C126.982 159.048 126.099 154.333 125.638 149.769C125.501 148.427 124.357 147.453 122.986 147.568C122.326 147.621 121.73 147.934 121.306 148.45C120.887 148.957 120.696 149.596 120.761 150.249C121.251 155.101 122.183 160.098 123.537 165.098C126.092 174.544 130.084 183.538 134.779 190.426C135.147 190.966 135.702 191.323 136.346 191.431C136.478 191.452 136.61 191.463 136.742 191.463C137.26 191.463 137.775 191.295 138.196 190.977L137.832 190.479L138.245 190.943C139.299 190.15 139.532 188.661 138.777 187.552" fill="black"/>
<path fill-rule="evenodd" clip-rule="evenodd" d="M122.814 79.8235C117.048 79.8235 112.356 75.0655 112.356 69.2175C112.356 63.3695 117.048 58.6126 122.814 58.6126C128.579 58.6126 133.269 63.3695 133.269 69.2175C133.269 75.0655 128.579 79.8235 122.814 79.8235ZM122.814 74.8534C125.876 74.8534 128.368 72.3258 128.368 69.2175C128.368 66.1114 125.876 63.5839 122.814 63.5839C119.75 63.5839 117.258 66.1114 117.258 69.2175C117.258 72.3258 119.75 74.8534 122.814 74.8534Z" fill="black"/>
<path fill-rule="evenodd" clip-rule="evenodd" d="M60.9912 115.57C60.9912 122.353 55.5515 127.87 48.8641 127.87C42.1779 127.87 36.7371 122.353 36.7371 115.57C36.7371 108.788 42.1779 103.269 48.8641 103.269C55.5515 103.269 60.9912 108.788 60.9912 115.57ZM48.8643 108.241C44.8803 108.241 41.6385 111.529 41.6385 115.57C41.6385 119.611 44.8803 122.9 48.8643 122.9C52.8483 122.9 56.0912 119.611 56.0912 115.57C56.0912 111.529 52.8483 108.241 48.8643 108.241Z" fill="black"/>
<path fill-rule="evenodd" clip-rule="evenodd" d="M194.314 140.992C191.743 135.949 193.698 129.72 198.674 127.112C201.084 125.851 203.836 125.615 206.417 126.448C209.003 127.283 211.112 129.09 212.358 131.532C213.602 133.977 213.835 136.767 213.013 139.389C212.188 142.01 210.408 144.15 207.999 145.413C206.565 146.165 204.958 146.562 203.352 146.562C199.528 146.562 196.064 144.428 194.314 140.992ZM208.004 133.815C207.36 132.552 206.269 131.616 204.93 131.184C204.407 131.015 203.869 130.928 203.329 130.928C202.491 130.928 201.68 131.13 200.923 131.528C199.678 132.18 198.758 133.287 198.331 134.646C197.904 136.003 198.024 137.447 198.667 138.709C199.998 141.318 203.173 142.344 205.75 140.997C206.995 140.343 207.917 139.237 208.343 137.879C208.769 136.522 208.648 135.078 208.004 133.815Z" fill="black"/>
<path fill-rule="evenodd" clip-rule="evenodd" d="M180.337 79.0005C178.932 79.0005 177.521 78.7681 176.151 78.299C172.858 77.171 170.192 74.8054 168.645 71.6357C167.098 68.4659 166.859 64.8796 167.972 61.5379C169.085 58.1928 171.417 55.4855 174.539 53.9185C177.66 52.3515 181.197 52.1102 184.496 53.2405C186.468 53.9151 188.266 55.0666 189.696 56.5666C190.626 57.5428 191.403 58.6641 192.008 59.9016C193.554 63.0669 193.791 66.6532 192.676 70.0017C191.562 73.3468 189.23 76.053 186.109 77.6211C184.283 78.5369 182.316 79.0005 180.337 79.0005ZM176.713 58.3726C174.765 59.3521 173.308 61.0397 172.613 63.1283C171.638 66.0646 172.352 69.2779 174.481 71.5139C175.389 72.4666 176.479 73.1635 177.72 73.5902C179.782 74.2961 181.987 74.1464 183.935 73.1669C185.882 72.1885 187.339 70.4998 188.034 68.4101C188.729 66.3226 188.58 64.0832 187.617 62.1063C186.652 60.1294 184.987 58.654 182.928 57.9493C180.87 57.2456 178.663 57.3931 176.713 58.3726Z" fill="black"/>
<path fill-rule="evenodd" clip-rule="evenodd" d="M86.0132 50.0192C86.0132 54.3304 82.5534 57.8386 78.3018 57.8386C74.0502 57.8386 70.5904 54.3304 70.5904 50.0192C70.5904 45.7069 74.0502 42.1976 78.3018 42.1976C82.5534 42.1976 86.0132 45.7069 86.0132 50.0192ZM78.3018 46.5948C76.4409 46.5948 74.9268 48.1317 74.9268 50.0192C74.9268 51.9068 76.4409 53.4425 78.3018 53.4425C80.165 53.4425 81.6791 51.9068 81.6791 50.0192C81.6791 48.1317 80.165 46.5948 78.3018 46.5948Z" fill="black"/>
<path fill-rule="evenodd" clip-rule="evenodd" d="M98.3522 144.19C97.6199 144.603 96.7478 144.591 96.0254 144.155C95.3031 143.722 94.8703 142.956 94.8703 142.104V117.753C94.8703 116.152 95.7127 114.646 97.0671 113.824L101.927 110.88C102.384 110.604 102.624 110.078 102.542 109.542C101.798 104.655 101.42 99.0535 101.42 92.8928C101.42 64.0725 111.996 25.4605 122.809 25.4605C129.245 25.4605 134.373 38.0758 137.545 48.6594C141.711 62.5703 144.199 79.1059 144.199 92.8928C144.199 99.0513 143.82 104.653 143.077 109.539C142.995 110.076 143.237 110.602 143.691 110.878L148.557 113.824C149.912 114.646 150.754 116.152 150.754 117.753V142.104C150.754 142.956 150.321 143.722 149.599 144.155C149.229 144.378 148.817 144.49 148.406 144.49C148.018 144.49 147.629 144.39 147.272 144.19L132.806 136.1C131.834 135.558 130.734 135.27 129.626 135.27H115.998C114.89 135.27 113.79 135.558 112.818 136.101L98.3522 144.19ZM135.084 131.527L141.378 115.498C141.404 115.433 141.454 115.407 141.481 115.397C141.511 115.387 141.564 115.378 141.62 115.414L144.332 117.056C145.27 117.624 145.853 118.666 145.853 119.773L145.834 137.688C145.818 137.699 145.805 137.695 145.796 137.69L135.156 131.739C135.084 131.699 135.052 131.608 135.084 131.527ZM110.483 131.732L99.7705 137.656V119.773C99.7705 118.666 100.354 117.624 101.292 117.056L104.024 115.401C104.073 115.371 104.117 115.378 104.147 115.387C104.176 115.397 104.216 115.421 104.237 115.472L110.548 131.546C110.575 131.615 110.548 131.695 110.483 131.732ZM136.625 114.144L130.278 130.3L115.339 130.311L109.968 116.635L108.975 114.166L136.625 114.144ZM137.874 109.195C138.05 109.195 138.197 109.074 138.222 108.906C138.936 104.257 139.298 98.8705 139.298 92.8929C139.298 60.8058 127.299 30.4309 122.809 30.4309C118.319 30.4309 106.32 60.8058 106.32 92.8929C106.32 98.8705 106.681 104.257 107.396 108.906C107.421 109.074 107.569 109.195 107.744 109.195H137.874Z" fill="black"/>
<path d="M135.084 131.527L141.378 115.497C141.404 115.433 141.455 115.407 141.483 115.397C141.511 115.386 141.564 115.378 141.621 115.413L144.332 117.055C145.271 117.624 145.853 118.665 145.853 119.773L145.834 137.688C145.818 137.698 145.805 137.694 145.797 137.69L135.156 131.738C135.084 131.698 135.052 131.607 135.084 131.527" fill="white"/>
<path d="M110.483 131.731L99.7705 137.655V119.773C99.7705 118.666 100.354 117.624 101.292 117.055L104.024 115.4C104.073 115.371 104.117 115.378 104.147 115.387C104.176 115.397 104.216 115.42 104.237 115.472L110.548 131.546C110.575 131.615 110.548 131.694 110.483 131.731" fill="#CEEAF5"/>
<path d="M661.735 44.1406H655.641V60.8191H653.107V44.1406H647V42H661.735V44.1406Z" fill="black"/>
<path d="M684.108 42V60.8191H681.876V46.9904C681.876 46.8065 681.88 46.6096 681.889 46.3994C681.906 46.1893 681.924 45.9748 681.941 45.7559L675.48 57.5228C675.279 57.9168 674.972 58.1137 674.561 58.1137H674.193C673.781 58.1137 673.475 57.9168 673.274 57.5228L666.681 45.7034C666.734 46.1674 666.76 46.5964 666.76 46.9904V60.8191H664.527V42H666.405C666.633 42 666.808 42.0219 666.931 42.0657C667.053 42.1094 667.171 42.232 667.285 42.4334L673.786 54.0164C673.891 54.2265 673.992 54.4454 674.088 54.673C674.193 54.9006 674.289 55.1326 674.377 55.369C674.464 55.1326 674.556 54.9006 674.653 54.673C674.749 54.4366 674.854 54.2134 674.968 54.0032L681.35 42.4334C681.455 42.232 681.569 42.1094 681.692 42.0657C681.823 42.0219 682.003 42 682.23 42H684.108Z" fill="black"/>
</svg>
